<svg fill="#f63488" viewBox="0 0 48 48" xmlns="http://www.w3.org/2000/svg">
    <g id="SVGRepo_bgCarrier" stroke-width="0"></g>
    <g id="SVGRepo_tracerCarrier" stroke-linecap="round" stroke-linejoin="round"></g>
    <g id="SVGRepo_iconCarrier">
        <g id="Lifeguard" transform="translate(-238.2 -366.5)">
            <g id="Group_10" data-name="Group 10">
                <path id="Path_20" data-name="Path 20"
                      d="M262.2,414.5a24,24,0,1,1,24-24A24.071,24.071,0,0,1,262.2,414.5Zm0-46a22,22,0,1,0,22,22A22.065,22.065,0,0,0,262.2,368.5Zm0,38.3a16.2,16.2,0,1,1,16.2-16.2A16.282,16.282,0,0,1,262.2,406.8Zm0-30.5a14.2,14.2,0,1,0,14.2,14.2A14.127,14.127,0,0,0,262.2,376.3Z"></path>
            </g>
            <g id="Group_11" data-name="Group 11">
                <path id="Path_21" data-name="Path 21"
                      d="M252.7,369.6l3.1,7.1s6.6-3.4,13.3.3l3.5-6.9A23.028,23.028,0,0,0,252.7,369.6Z"></path>
                <path id="Path_22" data-name="Path 22"
                      d="M246.9,391.3l-7.7.4a23.5,23.5,0,0,0,9.6,17.5l4.6-6.2A15.491,15.491,0,0,1,246.9,391.3Z"></path>
                <path id="Path_23" data-name="Path 23"
                      d="M277.4,391.9s-.4,7.4-6.9,11.4l4.2,6.5a23.32,23.32,0,0,0,10.4-17Z"></path>
            </g>
        </g>
    </g>
</svg>
